<svg xmlns="http://www.w3.org/2000/svg" viewBox="0 0 64 64" width="512" height="512"><path d="M42.994 5.08a7.75 7.75 0 0 0-2.224.191c-3.692.851-5.839 3.032-7.002 4.442a1 1 0 0 0-.127.133c-.064.078-.12.159-.18.238-.076.096-.196.232-.26.314-.779 1.013-2.003 1.708-3.228 1.7-.822-.006-1.665.244-2.207.88-.543.637-.702 1.477-.674 2.407.033 1.08.486 1.967.857 2.746.371.78.66 1.455.684 1.953.028.605-.085.983-.37 1.553-.284.57-.761 1.29-1.327 2.312-.362.653-.638 1.425-.87 1.86-.076-2.973-.096-6.14-.439-8.844-.248-1.953-.631-4.166-1.89-5.975-1.26-1.808-3.477-3.064-6.76-2.99-2.894.066-5.307 1.441-6.84 3.666-1.534 2.225-2.237 5.243-2.063 8.7.346 6.887 4.02 19.45 10.078 28.2 2.981 4.306 5.188 6.843 7.252 8.422 2.064 1.58 3.992 2.14 6.069 2.473 2.933.47 6.395.9 8.736.191 1.08-.327 1.78-.77 2.209-.976.429-.207.45-.247.912-.096 1.21.396 4.966 2.179 8.213.426.738-.399 1.282-.792 1.68-1.256.397-.464.629-1.042.629-1.588 0-1.09-.637-1.776-1.04-2.361-.843-1.227-.87-1.887-.619-3.155.252-1.267.913-3.04 1.44-5.724 1.075-5.485-.415-9.887-1.18-12.264-.404-1.256-.835-2.192-1.117-2.898-.282-.706-.385-1.13-.346-1.473-.006.058.196-.59.516-1.31.32-.72.737-1.631 1.137-2.631.714-1.789 1.33-3.845 1.181-5.819a1 1 0 0 0 .051-.34c-.03-1.19.078-3.528-1.781-5.857a1 1 0 0 0-.182-.182c0-.025.022-.04.022-.066-.015-.647-.41-1.366-1.038-1.738a1 1 0 0 0-.001 0 1.991 1.991 0 0 0-.622-.24c-.376-.708-1.14-1.915-2.533-3.077-1.014-.846-2.66-1.82-4.746-1.947zm-.092 1.992c1.563.095 2.765.832 3.557 1.492a8.876 8.876 0 0 1 1.531 1.65c-.243.04-.486.08-.73.134-.482.106-.939.248-1.371.41-.98-.19-2.82-.603-4.196-1.201-.626-.273-1.239-.435-1.812-.455-.573-.021-1.107.097-1.574.38-.936.568-1.32 1.683-1.262 2.791.037.714-.072 1.077-.375 1.547-.304.47-.871 1.033-1.71 1.809-2.594 2.402-3.582 4.558-3.57 6.422.008 1.088.657 2.073 1.56 2.51.901.436 1.959.483 3.132.341a1 1 0 1 0-.242-1.984c-.948.115-1.67.011-2.02-.158-.35-.17-.426-.245-.43-.72-.007-1.158.581-2.768 2.93-4.942.353-.326.547-.615.84-.909a1 1 0 0 0 .246-.146c1.653-1.3 4.596-2.35 6.744-2.844.081.27.21.513.356.735.277.42.642.786 1.064 1.1.845.627 1.95 1.112 3.143.818.894-.22 1.602-.813 2.187-1.51.756 1.291.908 2.435.955 3.49a1 1 0 0 0-.001.006s-.28.752-.713 1.51c-.088-.413-.051-.765-.213-1.213l.006-.026-.01.002c-.05-.137-.007-.23-.065-.37a1 1 0 0 0-1.925.382s-.001.91-.381 1.91c-.38 1-1.025 1.962-2.504 2.317-1.403.336-3.244-.33-4.723-1.204a16.304 16.304 0 0 1-2.531-1.85 1 1 0 0 0-1.512 1.292s.465.693.817 1.613c.352.92.5 1.964.2 2.588-.485 1.013-1.46 2.903-2.23 5.047-.769 2.144-1.372 4.559-.99 6.803.35 2.055 1.064 4.112 1.686 5.966.622 1.854 1.135 3.53 1.177 4.588.023.577-.155.782-.162.786-.006.003-.346.11-1.246-.532-2.333-1.663-5.49-5.633-6.28-6.953a1 1 0 0 0-1.775.113c-.584 1.341-.733 3.229-.638 5.55.031.77.294 1.754.39 2.6-1.645-2.933-2.75-5.632-3.119-10.118-.278-3.387 1.078-8.339 1.104-8.434 1.348-3.416 1.374-3.31 2.469-5.287.524-.948.995-1.642 1.367-2.387.017-.035.031-.073.049-.11a1 1 0 0 0 .025-.046c2-3.888 2.492-7.983 5.002-11.174 1.012-1.274 2.79-3.222 6.09-3.982a1 1 0 0 0 .002 0c.599-.138 1.16-.178 1.681-.147zM17.023 10c2.798-.063 4.156.817 5.073 2.133.916 1.316 1.31 3.216 1.547 5.082.464 3.665.597 10.363.62 12.572-.086.298-1.467 5.06-1.142 9.016.564 6.84 2.239 9.72 6.033 15.488a1 1 0 0 0 1.807-.791c-.665-2.66-1.033-5.264-1.121-7.426-.047-1.148.15-1.65.252-2.478 1.413 1.866 3.263 4.042 5.281 5.48 1.193.85 2.38 1.192 3.36.662.98-.53 1.248-1.626 1.208-2.625-.061-1.553-.655-3.28-1.28-5.144-.626-1.864-1.298-3.842-1.608-5.666-.279-1.636.187-3.802.9-5.791.714-1.99 1.635-3.784 2.15-4.858.456-.948.395-1.894.213-2.785 1.193.704 2.666 1.389 4.23 1.541.079.71.257 1.476.52 2.186.179.48.389.929.7 1.324.31.395.826.83 1.535.777a9.81 9.81 0 0 0 1.695-.29c-.007.74.211 1.415.483 2.095.313.786.704 1.633 1.07 2.77.775 2.409 2.091 6.316 1.12 11.265-.496 2.533-1.13 4.174-1.437 5.719-.306 1.544-.154 3.095.934 4.678h-.002c.44.64.688 1.108.688 1.228 0 .06.01.102-.149.287-.158.185-.505.47-1.11.797-2.125 1.147-5.103-.063-6.64-.566-.91-.299-1.795-.099-2.404.195-.61.294-1.085.61-1.92.863-1.491.452-5.003.203-7.838-.252-1.94-.311-3.387-.722-5.172-2.088-1.784-1.365-3.896-3.743-6.822-7.968-5.756-8.312-9.41-20.889-9.725-27.164-.157-3.125.5-5.707 1.711-7.465 1.212-1.758 2.928-2.749 5.24-2.801zm22.82 1.105c.253.013.598.088 1.052.286.438.19.758.197 1.216.347-1.152.33-2.15.786-3.298 1.34.046-.319.248-.566.23-.91-.034-.64.128-.87.3-.975.087-.052.248-.1.5-.088zm10.034.96c.098.058.078.035.064.048-.005-.01-.013-.018-.064-.049zm-.59.01c.316-.016.59.054.649.05l-.002.002c.001.07-.055.31-.225.58-.34.54-1.125 1.115-1.475 1.201-.298.074-.958-.098-1.472-.48a2.592 2.592 0 0 1-.588-.596l-.014-.021c.043-.025.048-.035.104-.061.335-.157.869-.327 1.425-.45a10.209 10.209 0 0 1 1.598-.226zm-18.035 1.87c-.524 1.224-.943 2.443-1.356 3.643-.048-.102-.093-.218-.14-.317-.369-.774-.649-1.443-.664-1.947-.02-.654.113-.949.197-1.047.084-.098.204-.183.67-.18.444.004.876-.054 1.293-.152zm-18.172 3.3a1 1 0 0 0-.068 1.997l1.992.17a1 1 0 0 0 .17-1.994l-1.994-.168a1 1 0 0 0-.1-.006zm36.584 4.698a1 1 0 0 0 1.287.428c.123-.056.182-.158.295-.223-.156.49-.272.982-.46 1.456-.362.905-.746 1.744-1.067 2.466-.375.14-1.276.46-2.393.588a3.253 3.253 0 0 1-.385-.758c-.188-.507-.302-1.102-.369-1.623 1.535-.386 2.436-1.334 3.092-2.334zm-34.242.053a1 1 0 0 0-.168.016l-1.973.336a1 1 0 1 0 .336 1.97l1.97-.334a1 1 0 0 0-.165-1.988zm1.04 4.649a1 1 0 0 0-.267.039l-1.931.52a1 1 0 1 0 .52 1.929l1.93-.518a1 1 0 0 0-.251-1.97zm1.442 4.57a1 1 0 0 0-.363.06l-1.887.66a1 1 0 1 0 .659 1.887l1.888-.658a1 1 0 0 0-.297-1.95zm1.666 4.457a1 1 0 0 0-.357.088l-1.834.797a1 1 0 1 0 .799 1.834l1.834-.797a1 1 0 0 0-.442-1.922z"/></svg>