<svg version="1.1" id="Capa_1" xmlns="http://www.w3.org/2000/svg" x="0" y="0" viewBox="0 0 1024 1024" style="enable-background:new 0 0 1024 1024" xml:space="preserve"><path d="M661.83 1002.75c-7.3-1.48-14.55-2.95-21.78-4.41-37.83-7.65-73.6-14.89-109.62-23.19-1.33-1.83-2.93-5.71-3.01-7.49 6.88-27.75-7.86-43.25-23.2-54.76-12.28-9.21-23.78-19.09-37.08-30.54-1.93-1.66-3.88-3.34-5.86-5.04l67.36-23.8c5.41-1.91 9.27-6.42 10.34-12.05 1.07-5.64-.88-11.25-5.22-15l-54.2-46.93 67.09-23.75c5.41-1.92 9.28-6.43 10.34-12.07 1.06-5.64-.9-11.25-5.24-15l-53.76-46.45 65.59-23.86c4.57-1.66 8.09-5.26 9.66-9.88 1.56-4.59.95-9.56-1.65-13.63-7.24-11.32-16.9-17.06-28.71-17.06-5.72 0-12.03 1.35-19.29 4.13-59.81 22.87-107.66 56.97-146.28 104.24-27.77 33.98-56.48 69.12-88.09 100.07-40.53 39.69-84.51 59.81-130.7 59.81-14.23 0-28.98-1.89-43.85-5.63-41.91-10.52-74.37-35.78-91.38-71.13-16.84-34.98-16.4-75.56 1.24-114.27 30.69-67.36 86.96-117.35 177.09-157.32C299.8 494.18 410.19 473 539.07 473c10.93 0 22.18.15 33.45.46 1.65.04 3.25.07 4.8.07 23.15 0 44.79-5.13 46.44-42.31.55-12.3 3.08-24.56 5.77-37.54.7-3.37 1.4-6.75 2.06-10.13 1.35-6.89-2.35-13.91-8.81-16.7-1.9-.82-3.9-1.23-5.96-1.23a15.1 15.1 0 0 0-12.13 6.14l-45.12 61.39-20.19-72.77c-1.94-6.98-8.11-11.67-15.37-11.67-5.05 0-9.7 2.33-12.73 6.39l-44.9 60.07-20.54-72.19c-1.97-6.92-8.13-11.57-15.34-11.57-5.08 0-9.73 2.35-12.77 6.44L373 398.18l-20.13-72.25c-1.94-6.97-8.12-11.66-15.37-11.66-5.04 0-9.67 2.32-12.71 6.37l-45.02 59.99-19.78-71.72c-1.9-6.88-8.22-11.69-15.38-11.69-5 0-9.62 2.29-12.65 6.29l-45.38 59.73c-.23-.76-.46-1.52-.68-2.28-4.29-14.3-7.99-26.66-10.7-39.37-.34-1.58-.67-3.16-1-4.74-5.63-26.94-12.61-60.36-54.57-61.51l22.02-124.11c18.48 3.41 36.75 6.77 54.86 10.11 47.87 8.81 93.08 17.14 139.06 25.74 21.12 3.95 42.25 7.87 63.37 11.79 73.13 13.58 148.76 27.62 222.88 42.55 5.11 1.03 9.53 1.53 13.51 1.53 26.51 0 30.52-23.72 32.44-35.12 7.03-41.61 15.24-83.25 23.94-127.34 2.22-11.26 4.48-22.69 6.76-34.36l50.23 65.99c3 3.93 7.74 6.28 12.68 6.28 2.96 0 5.85-.82 8.36-2.37L835 55.75c-2.18 11.19-4.33 22.22-6.46 33.11-8.09 41.5-15.73 80.7-23.56 120.06l-.12.6c-4.21 21.16-6.32 31.79-.22 40.66 6.1 8.87 16.74 10.7 37.95 14.34l.39.07c41.08 7.05 81.52 14.09 124.33 21.54 14.86 2.59 29.87 5.2 45.06 7.84l-21.88 124.49-197.05-32.78a19.645 19.645 0 0 0-22.58 15.88l-109.03 601.19zM431.64 515.29c-3.54 0-7.2.53-10.57 1.53-8.49 2.53-17.17 5.04-25.56 7.47-35.11 10.18-71.41 20.7-105.63 35.33-75.18 32.14-132.42 74.9-175 130.72-4.76 6.24-5.49 13.89-5.87 21.83-.21 4.39 1.34 8.56 4.37 11.73 3 3.15 7.21 4.96 11.53 4.96 2.4 0 4.73-.54 6.91-1.59 4.68-2.26 10.06-5.02 14.7-9.2 9.48-8.52 18.69-17.55 27.59-26.28 15.15-14.86 30.82-30.23 47.7-42.83 57.37-42.81 126.29-73.01 204.86-89.74 6.64-1.41 12.63-3.98 18.43-6.46 1.26-.54 2.52-1.08 3.79-1.6 6.05-2.51 9.91-8.36 9.82-14.91l-.01-.98c-.08-6.65-4.48-10.28-6.59-12.03-.28-.23-.57-.46-.84-.72-5.01-4.73-11.79-7.23-19.63-7.23z" style="fill:#a63446"/><path d="m703.96 49.89 8.55 11.23 28.2 37.05c4.87 6.4 12.59 10.22 20.64 10.22 4.81 0 9.52-1.34 13.61-3.86l30.2-18.63 15.64-9.65c-.69 3.55-1.38 7.09-2.07 10.62-8.09 41.52-15.74 80.73-23.56 120.1l-.12.6c-4.46 22.4-7.14 35.93 1.35 48.28 8.49 12.35 22.04 14.67 44.5 18.53l.39.07c41.03 7.04 81.42 14.07 124.19 21.51 11.68 2.03 23.44 4.08 35.32 6.14l-12.07 68.65-6.37 36.21-187.27-31.16c-1.61-.27-3.25-.4-4.88-.4-14.35 0-26.62 10.25-29.18 24.37l-56.54 311.72-50.68 279.43c-3.93-.8-7.85-1.59-11.76-2.38-35.94-7.27-70.02-14.17-104.16-21.94 6.3-31.87-12.61-50.41-27.69-61.7-9.76-7.32-19.1-15.15-29.32-23.9l51.07-18.04c8.67-3.07 15.13-10.59 16.84-19.63 1.71-9.04-1.55-18.4-8.5-24.42l-18.17-15.73-23.04-19.95 31.8-11.26 19.09-6.76c8.68-3.07 15.12-10.6 16.83-19.64 1.7-9.04-1.56-18.4-8.53-24.42l-40.87-35.31 49.58-18.03c7.44-2.71 13.17-8.56 15.71-16.07 2.53-7.48 1.55-15.58-2.7-22.23-11.45-17.91-26.52-21.68-37.14-21.68-6.96 0-14.44 1.57-22.87 4.79-61.48 23.51-110.69 58.59-150.45 107.25-27.6 33.77-56.13 68.69-87.34 99.25-18.9 18.51-38.61 32.67-58.57 42.09-20.89 9.86-42.8 14.86-65.14 14.86-13.41 0-27.34-1.79-41.41-5.32-38.98-9.79-69.1-33.14-84.81-65.77-15.53-32.26-15.06-69.82 1.33-105.78 16.06-35.26 39.1-65.17 70.43-91.44 26.94-22.59 60.18-42.51 101.61-60.89C302.55 503.9 411.62 483 539.07 483c10.84 0 22.01.15 33.18.45 1.77.05 3.47.07 5.06.07 23.24 0 54.37-5.38 56.44-51.87.51-11.5 2.97-23.38 5.57-35.95.69-3.34 1.41-6.79 2.08-10.23 2.25-11.47-3.91-23.17-14.67-27.81a24.893 24.893 0 0 0-9.92-2.05c-7.94 0-15.49 3.82-20.19 10.21l-23.81 32.4-9.12 12.4-6.81-24.55-7.88-28.39c-3.1-11.18-13.39-18.99-25.01-18.99-8.24 0-15.8 3.79-20.75 10.41l-32.8 43.88-10.91-38.34-4.1-14.42c-3.15-11.09-13.42-18.83-24.96-18.83-8.28 0-15.86 3.82-20.81 10.49l-32.55 43.9-9.23-33.12-5.42-19.43c-3.11-11.17-13.39-18.97-25-18.97-8.21 0-15.76 3.78-20.7 10.36l-32.8 43.71-2.22-8.03-12.15-44.06c-3.09-11.21-13.38-19.03-25.02-19.03-8.16 0-15.67 3.73-20.62 10.24l-33.43 44c-2.16-7.55-4.05-14.73-5.6-21.96-.33-1.56-.66-3.13-.99-4.7-5.22-24.98-12.85-61.49-52.63-68.36l18.37-103.56c15.12 2.79 30.1 5.55 44.98 8.29 47.85 8.81 93.05 17.14 139.02 25.73 21.14 3.95 42.63 7.94 63.41 11.8 73.09 13.57 148.67 27.61 222.7 42.52 5.77 1.16 10.83 1.73 15.48 1.73 34.97 0 40.29-31.57 42.3-43.46 7-41.49 15.21-83.08 23.89-127.1.86-4.12 1.68-8.29 2.51-12.49M124.9 738.86c3.92 0 7.71-.87 11.27-2.59 5.69-2.75 11.68-5.95 17.04-10.76 9.65-8.66 18.93-17.77 27.91-26.58 15.6-15.31 30.34-29.76 46.68-41.95 28.9-21.57 60.93-39.99 95.19-54.76 32.52-14.02 68.11-25.19 105.77-33.22 7.59-1.62 14.33-4.5 20.27-7.04 1.23-.53 2.46-1.05 3.7-1.57 9.85-4.09 16.12-13.61 15.99-24.27l-.01-.98c-.14-11.27-7.72-17.54-10.21-19.61-.14-.11-.28-.23-.42-.35-6.79-6.38-16.17-9.9-26.43-9.9-4.49 0-9.13.67-13.42 1.95-8.45 2.52-17.12 5.03-25.5 7.46-35.39 10.26-71.99 20.87-106.77 35.74-76.81 32.84-135.37 76.62-179.02 133.85-7.04 9.23-7.59 20.62-7.91 27.42-.34 7.05 2.26 14.02 7.12 19.11 4.87 5.12 11.71 8.05 18.75 8.05M696.21 10.5c-2.65 0-5.26 1.75-5.85 4.8-11.9 61.11-23.19 115.82-32.48 170.86-3.01 17.84-7.72 26.78-22.58 26.78-3.31 0-7.12-.44-11.53-1.33-95.25-19.19-190.87-36.52-286.39-54.37-64.97-12.15-129.98-24.04-197.96-36.59-.36-.07-.72-.1-1.08-.1-2.82 0-5.34 2.03-5.85 4.9-7.95 44.8-15.48 87.24-23.58 132.94-.65 3.67 2.2 6.96 5.89 6.96h.19c.8-.02 1.58-.04 2.35-.04 37.96 0 41.93 29.7 48.05 58.37 3.44 16.12 8.49 31.89 13.87 50.11.81 2.73 3.24 4.24 5.71 4.24 1.73 0 3.48-.75 4.69-2.34 17.19-22.63 32.78-43.14 50.23-66.12a5.81 5.81 0 0 1 4.69-2.34c2.5 0 4.97 1.56 5.74 4.35 7.8 28.27 14.58 52.86 21.99 79.72.77 2.8 3.24 4.35 5.74 4.35 1.74 0 3.5-.75 4.71-2.37l50-66.63a5.836 5.836 0 0 1 4.71-2.37c2.5 0 4.96 1.55 5.74 4.34 7.86 28.22 14.79 53.07 22.37 80.27.78 2.79 3.24 4.33 5.73 4.33 1.75 0 3.52-.76 4.73-2.4 17.14-23.12 32.52-43.86 49.69-67.02a5.84 5.84 0 0 1 4.74-2.4c2.48 0 4.94 1.53 5.73 4.3 8.16 28.69 15.22 53.5 22.79 80.11.79 2.77 3.24 4.31 5.73 4.31 1.75 0 3.51-.76 4.72-2.38 17.07-22.84 32.52-43.51 49.83-66.66a5.837 5.837 0 0 1 4.72-2.38c2.5 0 4.96 1.55 5.74 4.34 7.91 28.52 14.77 53.23 22.44 80.85.78 2.79 3.24 4.34 5.74 4.34 1.76 0 3.54-.77 4.75-2.42 18.24-24.81 34.26-46.61 50.09-68.14.98-1.33 2.5-2.06 4.07-2.06.67 0 1.35.13 2 .41 2.18.94 3.42 3.27 2.96 5.59-3.21 16.36-7.28 32.68-8.01 49.15-1.19 26.73-12.59 32.76-36.46 32.76-1.46 0-2.97-.02-4.53-.06-11.26-.3-22.5-.46-33.72-.46-117.52 0-232.63 17.3-341.54 65.6-77.45 34.35-145.45 81.79-182.14 162.32-39.32 86.29 4.71 176.12 96.81 199.24 16.01 4.02 31.42 5.93 46.28 5.93 52.53 0 98.06-23.85 137.7-62.66 31.94-31.27 60.49-66.2 88.84-100.89 38.33-46.9 85.86-79.71 142.11-101.23 5.8-2.22 11.01-3.47 15.72-3.47 8.06 0 14.67 3.67 20.29 12.45 2.03 3.18.55 7.44-3 8.73l-72.11 26.23c-4.25 1.55-5.28 7.1-1.86 10.06l59.01 50.99c3.44 2.97 2.39 8.56-1.9 10.07-25.66 9.08-48.79 17.27-73.69 26.09-4.28 1.52-5.33 7.09-1.9 10.07 20.43 17.69 38.81 33.6 59.49 51.51 3.44 2.98 2.38 8.56-1.91 10.07-25.66 9.07-48.51 17.14-74.01 26.15-4.3 1.52-5.34 7.14-1.87 10.1 17.79 15.17 32.78 28.55 48.8 40.56 15.5 11.62 24.72 23.83 19.41 44.7-1.39 5.46 4.42 17.88 8.82 18.9 45.04 10.41 90.43 19.3 137.46 28.88.4.08.8.12 1.19.12 2.8 0 5.31-2 5.83-4.87 36.92-203.53 73.14-403.24 109.78-605.29a9.673 9.673 0 0 1 11.09-7.81c68.24 11.35 133.86 22.27 201.02 33.44.33.05.66.08.98.08 2.83 0 5.34-2.03 5.84-4.91 8-45.52 15.43-87.79 23.29-132.47.57-3.22-1.61-6.32-4.83-6.88-59.79-10.39-116.59-20.32-173.42-30.08-37.53-6.44-37.36-6.28-29.88-43.86 10.45-52.58 20.64-105.21 31.8-162.34.76-3.91-2.35-7.08-5.83-7.08-1.03 0-2.09.28-3.1.9-25.95 16.01-49.02 30.24-73.2 45.16-.97.6-2.04.88-3.11.88-1.8 0-3.57-.82-4.73-2.34-18.23-23.94-35.91-47.17-55.74-73.21-1.18-1.6-2.91-2.34-4.64-2.34zM124.9 718.86c-3.21 0-6.08-2.68-5.91-6.22.29-6.16.75-12.2 3.83-16.24 44.74-58.66 104.23-99.05 170.98-127.59 41.8-17.87 86.38-29.4 130.11-42.41 2.26-.67 4.95-1.12 7.72-1.12 4.52 0 9.26 1.19 12.76 4.49 1.9 1.8 4.27 3 4.3 5.61l.01.98a5.921 5.921 0 0 1-3.66 5.54c-6.76 2.8-13.43 6.02-20.46 7.52-75.91 16.17-146.55 45.09-208.75 91.51-27.4 20.45-50.41 46.71-75.99 69.69-3.55 3.19-7.9 5.47-12.37 7.63-.85.43-1.72.61-2.57.61z"/></svg>