<svg version="1.1" id="Capa_1" xmlns="http://www.w3.org/2000/svg" x="0" y="0" viewBox="0 0 128 128" style="enable-background:new 0 0 128 128" xml:space="preserve"><path d="M.74 63.86c0-20.3.03-40.6-.05-60.9C.68 1.08 1.06.7 2.95.7c40.6.07 81.2.07 121.79 0 1.88 0 2.26.38 2.26 2.26-.07 40.6-.07 81.2 0 121.79 0 1.88-.38 2.26-2.26 2.26-40.6-.07-81.2-.07-121.79 0-1.88 0-2.27-.38-2.26-2.26.08-20.3.05-40.59.05-60.89zm34.24.93c0 12.93-.01 25.85 0 38.78 0 4.75.17 4.89 5.02 4.91 2.31.01 4.62 0 6.94 0 5.49-.01 5.5-.01 5.49-5.35 0-4.62-.04-9.25-.03-13.87 0-.8-.3-1.81.57-2.3.77-.43 1.34.37 1.93.75 13.84 8.67 31.01 3.31 36.74-11.88 5.32-14.09 4.86-28.46.07-42.62-2.45-7.24-7.91-11.61-15.35-13.08-8.11-1.6-15.95-.84-22.88 4.2-2.04 1.48-3.53 1.72-4.59-.92-1.04-2.58-3.03-3.27-5.6-2.93-1.25.16-2.51.26-3.76.38-4.54.45-4.55.45-4.55 5.15-.01 12.93 0 25.86 0 38.78z"/><path d="M52.45 55.89c0-4.1.06-8.2-.02-12.29-.05-2.32.85-4.06 2.64-5.42 4.89-3.71 10.25-4.07 15.8-1.95 2.49.95 4.06 3.06 4.72 5.61 2.46 9.55 2.67 19.11-.54 28.55-1.6 4.7-5.33 6.53-10.01 6.77-4.96.25-9.09-1.37-11.97-5.59-.68-1-.61-2.21-.61-3.37-.02-4.11-.01-8.21-.01-12.31z"/></svg>