<svg version="1.0" xmlns="http://www.w3.org/2000/svg" width="933.333" height="933.333" viewBox="0 0 700 700"><path d="M473.2 8.2c-.8 1.1-3 10.6-5.7 24.8-.3 1.4-1.6 8.3-3.1 15.5-3.4 16.8-3.1 15.7-3.8 19.6-.3 1.9-1.6 9-3 15.9-1.3 6.9-2.7 14.3-3 16.5-.3 2.2-.8 5.1-1.1 6.5-1.2 5.9-1.6 7.7-2.1 11-1.4 8.8-3.4 17.2-4.9 20.4-3.6 7.6-9.9 8.5-30.5 4.3-6.9-1.4-13.6-2.8-15-3.1-1.4-.2-9.5-1.8-18-3.5-17.8-3.4-35.1-6.8-39.5-7.6-4-.7-5.9-1-21-3.9-7.1-1.4-14.3-2.7-16-3-1.6-.3-8.8-1.7-16-3-7.1-1.4-14.6-2.8-16.5-3.1-1.9-.4-7.1-1.3-11.5-2.1-4.4-.9-9.3-1.7-11-2-1.6-.3-11.1-2-21-3.9s-32.6-6.2-50.5-9.4c-17.9-3.3-33.4-6.2-34.5-6.4-1.1-.3-4-.8-6.5-1.2-6.7-1.1-14.4-2.5-35-6.4-5.8-1.1-10.2-1.5-11.2-1-2.2 1.2-2.3 1.3-4.8 17.3-.6 3.8-1.2 7.2-1.4 7.5-.2.3-.7 2.8-1 5.6-.4 2.7-.9 5.7-1.1 6.5-.2.8-.7 3.1-1 5-.3 1.9-2.4 13.8-4.6 26.5-4.4 24.8-4.7 27.1-3.1 28.7.5.5 3.8 1.2 7.3 1.5 16.1 1.2 22.9 9 28.3 32.3 3.8 16.3 10.7 41.3 11.9 42.7.5.7 2 1.3 3.2 1.3 1.8 0 4.7-3.1 12.7-13.8 5.6-7.5 10.5-13.9 10.8-14.2.3-.3 3.8-4.9 7.9-10.3 5.7-7.5 7.9-9.7 9.5-9.5 2 .3 4.3 3.7 5.1 7.6.2.9 1.5 5.7 2.8 10.7 1.4 4.9 4.5 16 6.8 24.5 2.4 8.5 4.7 15.8 5.3 16.2 3.5 2.4 5.3.6 23-23.2 22.3-29.7 22-29.6 27-11.8 1.5 5.4 2.9 10.6 3.1 11.5.8 3.8 8.6 30.9 9.6 33.5 2.5 6.3 5 4.5 17.1-12 5.1-7 9.6-13.2 10-13.7.5-.6 3.8-4.9 7.3-9.7 7.2-9.7 9.3-11.4 11.9-9.5 1 .7 3.8 8.9 7.1 20.7 3 10.7 5.8 20.8 6.4 22.5.5 1.6 1.7 5.8 2.7 9.2 1.8 6.4 3.8 8.3 6.8 6.6.8-.5 5-5.5 9.3-11.3 4.2-5.8 8.2-11 8.8-11.7.5-.6 4.6-6.1 9-12.1 4.4-6.1 9-11.6 10.3-12.3 4.1-2.3 4.4-1.7 12.7 29.1 8.3 30.7 9.6 33.6 13.6 30.7 1.5-1 24.2-31.2 33.8-44.9 2.7-3.9 6.7-5.1 7.7-2.3.4.8-.3 6.1-1.4 11.7-2.1 10.7-2.9 15.9-3.7 24.3-1 11.4-2.9 15.4-8.7 19.2l-4.1 2.8-31.1.1c-26.9.1-45.9.7-61.1 1.9-15.5 1.2-20.4 1.6-23.5 2-7.6.9-26.6 3.5-28.5 3.9-1.1.2-4 .7-6.5 1.1-7.8 1.3-9.3 1.6-19.1 3.6-5.2 1.1-10.5 2.1-11.6 2.4-6.5 1.2-31.7 8.2-43.8 12.2-47.9 15.6-87.7 35.9-116.4 59.3-8.6 7-24.3 22.4-29.6 29C12.8 460.6.9 489.1.9 515c0 11.8.7 17.3 3.6 27 11.5 38.5 45 64.5 89.6 69.6 34.6 4 67.6-6.8 97.4-32 10.5-8.8 32.7-32 46.5-48.5 2.5-2.9 5-5.9 5.6-6.5.5-.6 3.2-3.8 5.9-7.1 14.8-18.2 19.8-24 29.4-33.6 17.9-17.9 35.7-30.6 59.1-42.4 13.7-6.8 25-11.3 30.7-12.1 7.7-1 18 6.2 16.6 11.6-.5 2.1 0 1.8-21.3 9.5-30.9 11.2-32.5 11.9-32.8 14.2-.4 2.6-.2 2.7 23.7 23.3 10.5 9 19.1 17.1 19.1 18 0 3-1.7 4-11.6 7.4-26.1 9-41.9 14.8-43.1 15.8-1.4 1.1-.9 4.4 1.1 6.3.6.6 9 7.9 18.6 16.2 9.6 8.3 18.7 16.2 20.2 17.6 6 5.6 4.9 6.3-33.7 19.6-17.7 6.1-19 6.7-19.3 9.3-.2 1.8.9 3.4 4.5 6.5 2.6 2.3 6.2 5.4 7.8 6.8 1.7 1.5 8.4 7 15 12.3 13.5 11 16.8 14.2 19.1 19 1.9 4 2.7 12.3 1.5 15.4-1.1 2.9 1.2 10.8 3.7 13.1 1.8 1.7 24.3 6.9 66.2 15.4 12.4 2.5 23.2 4.7 24 4.8 7.1 1.6 7.6 1.6 9.1-.2 1-1.1 2.7-7.8 4.3-16.8 3.3-18.9 3.3-19 5.6-31 1-5.5 2.1-11.7 2.4-13.7.3-2.1 1-5.7 1.5-8 .5-2.4 1.2-6 1.5-8 .3-2 1.9-11 3.5-20 1.7-9 3.2-17.4 3.5-18.8.2-1.4 1.1-6.3 2-11 2.5-13.9 2.6-14.4 3.2-17.9.3-1.8.7-4.3 1-5.5.5-2.5 5.1-28 5.7-31.6.3-1.4 1.6-8.8 3.1-16.5 1.4-7.7 2.8-15.6 3.1-17.5 1.6-8.6 2.5-13.7 3-16.5.8-4.4 3.6-19.6 4.1-22.3.2-1.2.6-3.4.9-5 .3-1.5 1-5.4 1.6-8.7.6-3.3 1.3-6.9 1.4-8 2.4-13.7 4.8-27.1 13.4-74.5 11.9-65.4 11.8-65.3 13.4-67.4 1.5-2.1 5.5-2.6 11.6-1.4 9.1 1.7 10.6 2 13.1 2.3 1.4.2 6.8 1.1 12 2 5.2.9 10.4 1.8 11.5 2 1.1.1 3.6.6 5.5.9 7.9 1.4 9.8 1.7 16 2.6 3.6.5 7.5 1.2 8.6 1.4 1.2.2 3.9.7 6 1 4.8.8 22 3.6 25.4 4.2 1.4.2 4.1.7 6 1 1.9.2 5.8.9 8.5 1.4 9.2 1.7 11 2 16.6 2.6 3.8.4 5.9.3 6.3-.5.4-.6 1.6-6.2 2.7-12.4 1.1-6.1 3.1-17.3 4.4-24.7 7.8-43.8 9.9-58 8.9-59-.6-.6-7.3-2.1-15-3.5-14.3-2.4-18.3-3.2-22-3.9-1.2-.2-3.9-.7-6-1-2.2-.4-7.9-1.3-12.9-2.2-4.9-.8-10.3-1.7-12-2-1.6-.3-3.7-.7-4.5-.9-.8-.2-3.5-.7-6-1-2.5-.3-5.2-.8-6-1-.8-.2-3.1-.7-5-1-12.4-2-42-7.2-44.5-7.8-4-1-7.1-2.5-8.4-4.1-2.3-2.7-1.9-10.2 1.5-26.9 1.8-8.9 3.5-17.3 3.7-18.7.3-1.4 1-5 1.6-8 3.2-15.5 8.8-44.2 9.7-50 .3-1.9.9-5.1 1.4-7 .5-1.9 1.1-5.1 1.4-7 .3-1.9 1.2-6.7 2-10.7 1.7-7.9 1.4-9.8-1.5-10.6-2-.5-4.1.7-35.9 20.3-9.6 6-18.4 11-19.5 11.2-1.5.2-5.9-5-20.2-23.7-10-13.2-19.3-25.2-20.7-26.8-2.6-2.9-4.8-3.4-6.4-1.5zM300.8 360.4c1.5.8 3.6 2.3 4.6 3.5 4.5 5-2.6 8.6-30.4 15.5-18.3 4.6-15.9 3.9-27.5 7.6-8.9 2.9-21.5 7.5-27 9.9-1.1.5-4.5 2-7.5 3.3-17.2 7.2-40.4 20.3-57.7 32.5-15.5 10.9-18.9 13.9-49.7 43.7-16.9 16.3-25.3 19.2-23.9 8.1.2-2.2.5-4.6.5-5.3.2-1.6 13.4-17.5 21.4-25.8 19.6-20.1 44.9-38.5 73.1-53.1 24.7-12.7 46.2-20.8 88.8-33.3 11.6-3.4 22.1-6.5 23.5-7 3.9-1.3 8.8-1.1 11.8.4z"/></svg>