<?xml version="1.0" standalone="no"?>
<!DOCTYPE svg PUBLIC "-//W3C//DTD SVG 20010904//EN"
 "http://www.w3.org/TR/2001/REC-SVG-20010904/DTD/svg10.dtd">
<svg version="1.0" xmlns="http://www.w3.org/2000/svg"
 width="700.000000pt" height="700.000000pt" viewBox="0 0 700.000000 700.000000"
 preserveAspectRatio="xMidYMid meet">
<metadata>
Created by potrace 1.14, written by Peter Selinger 2001-2017
</metadata>
<g transform="translate(0.000000,700.000000) scale(0.100000,-0.100000)"
fill="#000000" stroke="none">
<path d="M4732 6918 c-8 -11 -30 -106 -57 -248 -3 -14 -16 -83 -31 -155 -34
-168 -31 -157 -38 -196 -3 -19 -16 -90 -30 -159 -13 -69 -27 -143 -30 -165 -3
-22 -8 -51 -11 -65 -12 -59 -16 -77 -21 -110 -14 -88 -34 -172 -49 -204 -36
-76 -99 -85 -305 -43 -69 14 -136 28 -150 31 -14 2 -95 18 -180 35 -178 34
-351 68 -395 76 -40 7 -59 10 -210 39 -71 14 -143 27 -160 30 -16 3 -88 17
-160 30 -71 14 -146 28 -165 31 -19 4 -71 13 -115 21 -44 9 -93 17 -110 20
-16 3 -111 20 -210 39 -99 19 -326 62 -505 94 -179 33 -334 62 -345 64 -11 3
-40 8 -65 12 -67 11 -144 25 -350 64 -58 11 -102 15 -112 10 -22 -12 -23 -13
-48 -173 -6 -38 -12 -72 -14 -75 -2 -3 -7 -28 -10 -56 -4 -27 -9 -57 -11 -65
-2 -8 -7 -31 -10 -50 -3 -19 -24 -138 -46 -265 -44 -248 -47 -271 -31 -287 5
-5 38 -12 73 -15 161 -12 229 -90 283 -323 38 -163 107 -413 119 -427 5 -7 20
-13 32 -13 18 0 47 31 127 138 56 75 105 139 108 142 3 3 38 49 79 103 57 75
79 97 95 95 20 -3 43 -37 51 -76 2 -9 15 -57 28 -107 14 -49 45 -160 68 -245
24 -85 47 -158 53 -162 35 -24 53 -6 230 232 223 297 220 296 270 118 15 -54
29 -106 31 -115 8 -38 86 -309 96 -335 25 -63 50 -45 171 120 51 70 96 132
100 137 5 6 38 49 73 97 72 97 93 114 119 95 10 -7 38 -89 71 -207 30 -107 58
-208 64 -225 5 -16 17 -58 27 -92 18 -64 38 -83 68 -66 8 5 50 55 93 113 42
58 82 110 88 117 5 6 46 61 90 121 44 61 90 116 103 123 41 23 44 17 127 -291
83 -307 96 -336 136 -307 15 10 242 312 338 449 27 39 67 51 77 23 4 -8 -3
-61 -14 -117 -21 -107 -29 -159 -37 -243 -10 -114 -29 -154 -87 -192 l-41 -28
-311 -1 c-269 -1 -459 -7 -611 -19 -155 -12 -204 -16 -235 -20 -76 -9 -266
-35 -285 -39 -11 -2 -40 -7 -65 -11 -78 -13 -93 -16 -191 -36 -52 -11 -105
-21 -116 -24 -65 -12 -317 -82 -438 -122 -479 -156 -877 -359 -1164 -593 -86
-70 -243 -224 -296 -290 -227 -286 -346 -571 -346 -830 0 -118 7 -173 36 -270
115 -385 450 -645 896 -696 346 -40 676 68 974 320 105 88 327 320 465 485 25
29 50 59 56 65 5 6 32 38 59 71 148 182 198 240 294 336 179 179 357 306 591
424 137 68 250 113 307 121 77 10 180 -62 166 -116 -5 -21 0 -18 -213 -95
-309 -112 -325 -119 -328 -142 -4 -26 -2 -27 237 -233 105 -90 191 -171 191
-180 0 -30 -17 -40 -116 -74 -261 -90 -419 -148 -431 -158 -14 -11 -9 -44 11
-63 6 -6 90 -79 186 -162 96 -83 187 -162 202 -176 60 -56 49 -63 -337 -196
-177 -61 -190 -67 -193 -93 -2 -18 9 -34 45 -65 26 -23 62 -54 78 -68 17 -15
84 -70 150 -123 135 -110 168 -142 191 -190 19 -40 27 -123 15 -154 -11 -29
12 -108 37 -131 18 -17 243 -69 662 -154 124 -25 232 -47 240 -48 71 -16 76
-16 91 2 10 11 27 78 43 168 33 189 33 190 56 310 10 55 21 117 24 137 3 21
10 57 15 80 5 24 12 60 15 80 3 20 19 110 35 200 17 90 32 174 35 188 2 14 11
63 20 110 25 139 26 144 32 179 3 18 7 43 10 55 5 25 51 280 57 316 3 14 16
88 31 165 14 77 28 156 31 175 16 86 25 137 30 165 8 44 36 196 41 223 2 12 6
34 9 50 3 15 10 54 16 87 6 33 13 69 14 80 24 137 48 271 134 745 119 654 118
653 134 674 15 21 55 26 116 14 91 -17 106 -20 131 -23 14 -2 68 -11 120 -20
52 -9 104 -18 115 -20 11 -1 36 -6 55 -9 79 -14 98 -17 160 -26 36 -5 75 -12
86 -14 12 -2 39 -7 60 -10 48 -8 220 -36 254 -42 14 -2 41 -7 60 -10 19 -2 58
-9 85 -14 92 -17 110 -20 166 -26 38 -4 59 -3 63 5 4 6 16 62 27 124 11 61 31
173 44 247 78 438 99 580 89 590 -6 6 -73 21 -150 35 -143 24 -183 32 -220 39
-12 2 -39 7 -60 10 -22 4 -79 13 -129 22 -49 8 -103 17 -120 20 -16 3 -37 7
-45 9 -8 2 -35 7 -60 10 -25 3 -52 8 -60 10 -8 2 -31 7 -50 10 -124 20 -420
72 -445 78 -40 10 -71 25 -84 41 -23 27 -19 102 15 269 18 89 35 173 37 187 3
14 10 50 16 80 32 155 88 442 97 500 3 19 9 51 14 70 5 19 11 51 14 70 3 19
12 67 20 107 17 79 14 98 -15 106 -20 5 -41 -7 -359 -203 -96 -60 -184 -110
-195 -112 -15 -2 -59 50 -202 237 -100 132 -193 252 -207 268 -26 29 -48 34
-64 15z m-1724 -3522 c15 -8 36 -23 46 -35 45 -50 -26 -86 -304 -155 -183 -46
-159 -39 -275 -76 -89 -29 -215 -75 -270 -99 -11 -5 -45 -20 -75 -33 -172 -72
-404 -203 -577 -325 -155 -109 -189 -139 -497 -437 -169 -163 -253 -192 -239
-81 2 22 5 46 5 53 2 16 134 175 214 258 196 201 449 385 731 531 247 127 462
208 888 333 116 34 221 65 235 70 39 13 88 11 118 -4z"/>
</g>
</svg>
