<?xml version="1.0" encoding="utf-8"?>
<!-- Generator: Adobe Illustrator 27.2.0, SVG Export Plug-In . SVG Version: 6.00 Build 0)  -->
<svg version="1.1" id="Capa_1" xmlns="http://www.w3.org/2000/svg" xmlns:xlink="http://www.w3.org/1999/xlink" x="0px" y="0px"
	 viewBox="0 0 1024 1024" style="enable-background:new 0 0 1024 1024;" xml:space="preserve">
<style type="text/css">
	.st0{fill:#A63446;}
</style>
<g>
	<g>
		<path class="st0" d="M661.83,1002.75c-7.3-1.48-14.55-2.95-21.78-4.41c-37.83-7.65-73.6-14.89-109.62-23.19
			c-1.33-1.83-2.93-5.71-3.01-7.49c6.88-27.75-7.86-43.25-23.2-54.76c-12.28-9.21-23.78-19.09-37.08-30.54
			c-1.93-1.66-3.88-3.34-5.86-5.04l67.36-23.8c5.41-1.91,9.27-6.42,10.34-12.05c1.07-5.64-0.88-11.25-5.22-15l-54.2-46.93
			l67.09-23.75c5.41-1.92,9.28-6.43,10.34-12.07c1.06-5.64-0.9-11.25-5.24-15l-53.76-46.45l65.59-23.86
			c4.57-1.66,8.09-5.26,9.66-9.88c1.56-4.59,0.95-9.56-1.65-13.63c-7.24-11.32-16.9-17.06-28.71-17.06
			c-5.72,0-12.03,1.35-19.29,4.13c-59.81,22.87-107.66,56.97-146.28,104.24c-27.77,33.98-56.48,69.12-88.09,100.07
			c-40.53,39.69-84.51,59.81-130.7,59.81c-14.23,0-28.98-1.89-43.85-5.63c-41.91-10.52-74.37-35.78-91.38-71.13
			c-16.84-34.98-16.4-75.56,1.24-114.27c30.69-67.36,86.96-117.35,177.09-157.32C299.8,494.18,410.19,473,539.07,473
			c10.93,0,22.18,0.15,33.45,0.46c1.65,0.04,3.25,0.07,4.8,0.07c23.15,0,44.79-5.13,46.44-42.31c0.55-12.3,3.08-24.56,5.77-37.54
			c0.7-3.37,1.4-6.75,2.06-10.13c1.35-6.89-2.35-13.91-8.81-16.7c-1.9-0.82-3.9-1.23-5.96-1.23c-4.77,0-9.3,2.29-12.13,6.14
			l-45.12,61.39l-20.19-72.77c-1.94-6.98-8.11-11.67-15.37-11.67c-5.05,0-9.7,2.33-12.73,6.39l-44.9,60.07l-20.54-72.19
			c-1.97-6.92-8.13-11.57-15.34-11.57c-5.08,0-9.73,2.35-12.77,6.44l-44.73,60.33l-20.13-72.25c-1.94-6.97-8.12-11.66-15.37-11.66
			c-5.04,0-9.67,2.32-12.71,6.37l-45.02,59.99l-19.78-71.72c-1.9-6.88-8.22-11.69-15.38-11.69c-5,0-9.62,2.29-12.65,6.29
			l-45.38,59.73c-0.23-0.76-0.46-1.52-0.68-2.28c-4.29-14.3-7.99-26.66-10.7-39.37c-0.34-1.58-0.67-3.16-1-4.74
			c-5.63-26.94-12.61-60.36-54.57-61.51l22.02-124.11c18.48,3.41,36.75,6.77,54.86,10.11c47.87,8.81,93.08,17.14,139.06,25.74
			c21.12,3.95,42.25,7.87,63.37,11.79c73.13,13.58,148.76,27.62,222.88,42.55c5.11,1.03,9.53,1.53,13.51,1.53
			c26.51,0,30.52-23.72,32.44-35.12c7.03-41.61,15.24-83.25,23.94-127.34c2.22-11.26,4.48-22.69,6.76-34.36l50.23,65.99
			c3,3.93,7.74,6.28,12.68,6.28c2.96,0,5.85-0.82,8.36-2.37L835,55.75c-2.18,11.19-4.33,22.22-6.46,33.11
			c-8.09,41.5-15.73,80.7-23.56,120.06l-0.12,0.6c-4.21,21.16-6.32,31.79-0.22,40.66c6.1,8.87,16.74,10.7,37.95,14.34l0.39,0.07
			c41.08,7.05,81.52,14.09,124.33,21.54c14.86,2.59,29.87,5.2,45.06,7.84l-21.88,124.49l-197.05-32.78
			c-1.07-0.18-2.16-0.27-3.24-0.27c-9.51,0-17.64,6.79-19.34,16.15L661.83,1002.75z M431.64,515.29c-3.54,0-7.2,0.53-10.57,1.53
			c-8.49,2.53-17.17,5.04-25.56,7.47c-35.11,10.18-71.41,20.7-105.63,35.33c-75.18,32.14-132.42,74.9-175,130.72
			c-4.76,6.24-5.49,13.89-5.87,21.83c-0.21,4.39,1.34,8.56,4.37,11.73c3,3.15,7.21,4.96,11.53,4.96c0,0,0,0,0,0
			c2.4,0,4.73-0.54,6.91-1.59c4.68-2.26,10.06-5.02,14.7-9.2c9.48-8.52,18.69-17.55,27.59-26.28c15.15-14.86,30.82-30.23,47.7-42.83
			c57.37-42.81,126.29-73.01,204.86-89.74c6.64-1.41,12.63-3.98,18.43-6.46c1.26-0.54,2.52-1.08,3.79-1.6
			c6.05-2.51,9.91-8.36,9.82-14.91l-0.01-0.98c-0.08-6.65-4.48-10.28-6.59-12.03c-0.28-0.23-0.57-0.46-0.84-0.72
			C446.26,517.79,439.48,515.29,431.64,515.29z"/>
		<path d="M703.96,49.89l8.55,11.23l28.2,37.05c4.87,6.4,12.59,10.22,20.64,10.22c4.81,0,9.52-1.34,13.61-3.86l30.2-18.63
			l15.64-9.65c-0.69,3.55-1.38,7.09-2.07,10.62c-8.09,41.52-15.74,80.73-23.56,120.1l-0.12,0.6c-4.46,22.4-7.14,35.93,1.35,48.28
			c8.49,12.35,22.04,14.67,44.5,18.53l0.39,0.07c41.03,7.04,81.42,14.07,124.19,21.51c11.68,2.03,23.44,4.08,35.32,6.14
			l-12.07,68.65l-6.37,36.21L795.09,375.8c-1.61-0.27-3.25-0.4-4.88-0.4c-14.35,0-26.62,10.25-29.18,24.37l-56.54,311.72
			l-50.68,279.43c-3.93-0.8-7.85-1.59-11.76-2.38c-35.94-7.27-70.02-14.17-104.16-21.94c6.3-31.87-12.61-50.41-27.69-61.7
			c-9.76-7.32-19.1-15.15-29.32-23.9l51.07-18.04c8.67-3.07,15.13-10.59,16.84-19.63c1.71-9.04-1.55-18.4-8.5-24.42l-18.17-15.73
			l-23.04-19.95l31.8-11.26l19.09-6.76c8.68-3.07,15.12-10.6,16.83-19.64c1.7-9.04-1.56-18.4-8.53-24.42l-40.87-35.31l49.58-18.03
			c7.44-2.71,13.17-8.56,15.71-16.07c2.53-7.48,1.55-15.58-2.7-22.23c-11.45-17.91-26.52-21.68-37.14-21.68
			c-6.96,0-14.44,1.57-22.87,4.79c-61.48,23.51-110.69,58.59-150.45,107.25c-27.6,33.77-56.13,68.69-87.34,99.25
			c-18.9,18.51-38.61,32.67-58.57,42.09c-20.89,9.86-42.8,14.86-65.14,14.86c-13.41,0-27.34-1.79-41.41-5.32
			c-38.98-9.79-69.1-33.14-84.81-65.77c-15.53-32.26-15.06-69.82,1.33-105.78c16.06-35.26,39.1-65.17,70.43-91.44
			c26.94-22.59,60.18-42.51,101.61-60.89C302.55,503.9,411.62,483,539.07,483c10.84,0,22.01,0.15,33.18,0.45
			c1.77,0.05,3.47,0.07,5.06,0.07c23.24,0,54.37-5.38,56.44-51.87c0.51-11.5,2.97-23.38,5.57-35.95c0.69-3.34,1.41-6.79,2.08-10.23
			c2.25-11.47-3.91-23.17-14.67-27.81c-3.15-1.36-6.49-2.05-9.92-2.05c-7.94,0-15.49,3.82-20.19,10.21l-23.81,32.4l-9.12,12.4
			l-6.81-24.55l-7.88-28.39c-3.1-11.18-13.39-18.99-25.01-18.99c-8.24,0-15.8,3.79-20.75,10.41l-32.8,43.88l-10.91-38.34l-4.1-14.42
			c-3.15-11.09-13.42-18.83-24.96-18.83c-8.28,0-15.86,3.82-20.81,10.49l-32.55,43.9l-9.23-33.12l-5.42-19.43
			c-3.11-11.17-13.39-18.97-25-18.97c-8.21,0-15.76,3.78-20.7,10.36l-32.8,43.71l-2.22-8.03l-12.15-44.06
			c-3.09-11.21-13.38-19.03-25.02-19.03c-8.16,0-15.67,3.73-20.62,10.24l-33.43,44c-2.16-7.55-4.05-14.73-5.6-21.96
			c-0.33-1.56-0.66-3.13-0.99-4.7c-5.22-24.98-12.85-61.49-52.63-68.36l18.37-103.56c15.12,2.79,30.1,5.55,44.98,8.29
			c47.85,8.81,93.05,17.14,139.02,25.73c21.14,3.95,42.63,7.94,63.41,11.8c73.09,13.57,148.67,27.61,222.7,42.52
			c5.77,1.16,10.83,1.73,15.48,1.73c34.97,0,40.29-31.57,42.3-43.46c7-41.49,15.21-83.08,23.89-127.1
			C702.31,58.26,703.13,54.09,703.96,49.89 M124.9,738.86c3.92,0,7.71-0.87,11.27-2.59c5.69-2.75,11.68-5.95,17.04-10.76
			c9.65-8.66,18.93-17.77,27.91-26.58c15.6-15.31,30.34-29.76,46.68-41.95c28.9-21.57,60.93-39.99,95.19-54.76
			c32.52-14.02,68.11-25.19,105.77-33.22c7.59-1.62,14.33-4.5,20.27-7.04c1.23-0.53,2.46-1.05,3.7-1.57
			c9.85-4.09,16.12-13.61,15.99-24.27l-0.01-0.98c-0.14-11.27-7.72-17.54-10.21-19.61c-0.14-0.11-0.28-0.23-0.42-0.35
			c-6.79-6.38-16.17-9.9-26.43-9.9c-4.49,0-9.13,0.67-13.42,1.95c-8.45,2.52-17.12,5.03-25.5,7.46
			c-35.39,10.26-71.99,20.87-106.77,35.74c-76.81,32.84-135.37,76.62-179.02,133.85c-7.04,9.23-7.59,20.62-7.91,27.42
			c-0.34,7.05,2.26,14.02,7.12,19.11C111.02,735.93,117.86,738.86,124.9,738.86 M696.21,10.5c-2.65,0-5.26,1.75-5.85,4.8
			c-11.9,61.11-23.19,115.82-32.48,170.86c-3.01,17.84-7.72,26.78-22.58,26.78c-3.31,0-7.12-0.44-11.53-1.33
			c-95.25-19.19-190.87-36.52-286.39-54.37c-64.97-12.15-129.98-24.04-197.96-36.59c-0.36-0.07-0.72-0.1-1.08-0.1
			c-2.82,0-5.34,2.03-5.85,4.9c-7.95,44.8-15.48,87.24-23.58,132.94c-0.65,3.67,2.2,6.96,5.89,6.96c0.06,0,0.13,0,0.19,0
			c0.8-0.02,1.58-0.04,2.35-0.04c37.96,0,41.93,29.7,48.05,58.37c3.44,16.12,8.49,31.89,13.87,50.11c0.81,2.73,3.24,4.24,5.71,4.24
			c1.73,0,3.48-0.75,4.69-2.34c17.19-22.63,32.78-43.14,50.23-66.12c1.21-1.6,2.96-2.34,4.69-2.34c2.5,0,4.97,1.56,5.74,4.35
			c7.8,28.27,14.58,52.86,21.99,79.72c0.77,2.8,3.24,4.35,5.74,4.35c1.74,0,3.5-0.75,4.71-2.37l50-66.63
			c1.21-1.61,2.97-2.37,4.71-2.37c2.5,0,4.96,1.55,5.74,4.34c7.86,28.22,14.79,53.07,22.37,80.27c0.78,2.79,3.24,4.33,5.73,4.33
			c1.75,0,3.52-0.76,4.73-2.4c17.14-23.12,32.52-43.86,49.69-67.02c1.21-1.63,2.98-2.4,4.74-2.4c2.48,0,4.94,1.53,5.73,4.3
			c8.16,28.69,15.22,53.5,22.79,80.11c0.79,2.77,3.24,4.31,5.73,4.31c1.75,0,3.51-0.76,4.72-2.38
			c17.07-22.84,32.52-43.51,49.83-66.66c1.21-1.62,2.98-2.38,4.72-2.38c2.5,0,4.96,1.55,5.74,4.34
			c7.91,28.52,14.77,53.23,22.44,80.85c0.78,2.79,3.24,4.34,5.74,4.34c1.76,0,3.54-0.77,4.75-2.42
			c18.24-24.81,34.26-46.61,50.09-68.14c0.98-1.33,2.5-2.06,4.07-2.06c0.67,0,1.35,0.13,2,0.41c2.18,0.94,3.42,3.27,2.96,5.59
			c-3.21,16.36-7.28,32.68-8.01,49.15c-1.19,26.73-12.59,32.76-36.46,32.76c-1.46,0-2.97-0.02-4.53-0.06
			c-11.26-0.3-22.5-0.46-33.72-0.46c-117.52,0-232.63,17.3-341.54,65.6c-77.45,34.35-145.45,81.79-182.14,162.32
			c-39.32,86.29,4.71,176.12,96.81,199.24c16.01,4.02,31.42,5.93,46.28,5.93c52.53,0,98.06-23.85,137.7-62.66
			c31.94-31.27,60.49-66.2,88.84-100.89c38.33-46.9,85.86-79.71,142.11-101.23c5.8-2.22,11.01-3.47,15.72-3.47
			c8.06,0,14.67,3.67,20.29,12.45c2.03,3.18,0.55,7.44-3,8.73c-23.78,8.65-47.09,17.13-72.11,26.23c-4.25,1.55-5.28,7.1-1.86,10.06
			l59.01,50.99c3.44,2.97,2.39,8.56-1.9,10.07c-25.66,9.08-48.79,17.27-73.69,26.09c-4.28,1.52-5.33,7.09-1.9,10.07
			c20.43,17.69,38.81,33.6,59.49,51.51c3.44,2.98,2.38,8.56-1.91,10.07c-25.66,9.07-48.51,17.14-74.01,26.15
			c-4.3,1.52-5.34,7.14-1.87,10.1c17.79,15.17,32.78,28.55,48.8,40.56c15.5,11.62,24.72,23.83,19.41,44.7
			c-1.39,5.46,4.42,17.88,8.82,18.9c45.04,10.41,90.43,19.3,137.46,28.88c0.4,0.08,0.8,0.12,1.19,0.12c2.8,0,5.31-2,5.83-4.87
			c36.92-203.53,73.14-403.24,109.78-605.29c0.85-4.66,4.91-7.94,9.5-7.94c0.53,0,1.06,0.04,1.59,0.13
			c68.24,11.35,133.86,22.27,201.02,33.44c0.33,0.05,0.66,0.08,0.98,0.08c2.83,0,5.34-2.03,5.84-4.91
			c8-45.52,15.43-87.79,23.29-132.47c0.57-3.22-1.61-6.32-4.83-6.88c-59.79-10.39-116.59-20.32-173.42-30.08
			c-37.53-6.44-37.36-6.28-29.88-43.86c10.45-52.58,20.64-105.21,31.8-162.34c0.76-3.91-2.35-7.08-5.83-7.08
			c-1.03,0-2.09,0.28-3.1,0.9c-25.95,16.01-49.02,30.24-73.2,45.16c-0.97,0.6-2.04,0.88-3.11,0.88c-1.8,0-3.57-0.82-4.73-2.34
			c-18.23-23.94-35.91-47.17-55.74-73.21C699.67,11.24,697.94,10.5,696.21,10.5L696.21,10.5z M124.9,718.86
			c-3.21,0-6.08-2.68-5.91-6.22c0.29-6.16,0.75-12.2,3.83-16.24c44.74-58.66,104.23-99.05,170.98-127.59
			c41.8-17.87,86.38-29.4,130.11-42.41c2.26-0.67,4.95-1.12,7.72-1.12c4.52,0,9.26,1.19,12.76,4.49c1.9,1.8,4.27,3,4.3,5.61
			l0.01,0.98c0.03,2.42-1.42,4.61-3.66,5.54c-6.76,2.8-13.43,6.02-20.46,7.52c-75.91,16.17-146.55,45.09-208.75,91.51
			c-27.4,20.45-50.41,46.71-75.99,69.69c-3.55,3.19-7.9,5.47-12.37,7.63C126.62,718.68,125.75,718.86,124.9,718.86L124.9,718.86z"/>
	</g>
</g>
</svg>
