<?xml version="1.0" encoding="utf-8"?>
<!-- Generator: Adobe Illustrator 27.2.0, SVG Export Plug-In . SVG Version: 6.00 Build 0)  -->
<svg version="1.1" id="Capa_1" xmlns="http://www.w3.org/2000/svg" xmlns:xlink="http://www.w3.org/1999/xlink" x="0px" y="0px"
	 viewBox="0 0 128 128" style="enable-background:new 0 0 128 128;" xml:space="preserve">
<g>
	<path d="M0.74,63.86c0-20.3,0.03-40.6-0.05-60.9C0.68,1.08,1.06,0.7,2.95,0.7c40.6,0.07,81.2,0.07,121.79,0
		c1.88,0,2.26,0.38,2.26,2.26c-0.07,40.6-0.07,81.2,0,121.79c0,1.88-0.38,2.26-2.26,2.26c-40.6-0.07-81.2-0.07-121.79,0
		c-1.88,0-2.27-0.38-2.26-2.26C0.77,104.45,0.74,84.16,0.74,63.86z M34.98,64.79c0,12.93-0.01,25.85,0,38.78
		c0,4.75,0.17,4.89,5.02,4.91c2.31,0.01,4.62,0,6.94,0c5.49-0.01,5.5-0.01,5.49-5.35c0-4.62-0.04-9.25-0.03-13.87
		c0-0.8-0.3-1.81,0.57-2.3c0.77-0.43,1.34,0.37,1.93,0.75c13.84,8.67,31.01,3.31,36.74-11.88c5.32-14.09,4.86-28.46,0.07-42.62
		c-2.45-7.24-7.91-11.61-15.35-13.08c-8.11-1.6-15.95-0.84-22.88,4.2c-2.04,1.48-3.53,1.72-4.59-0.92c-1.04-2.58-3.03-3.27-5.6-2.93
		c-1.25,0.16-2.51,0.26-3.76,0.38c-4.54,0.45-4.55,0.45-4.55,5.15C34.97,38.94,34.98,51.87,34.98,64.79z"/>
	<path d="M52.45,55.89c0-4.1,0.06-8.2-0.02-12.29c-0.05-2.32,0.85-4.06,2.64-5.42c4.89-3.71,10.25-4.07,15.8-1.95
		c2.49,0.95,4.06,3.06,4.72,5.61c2.46,9.55,2.67,19.11-0.54,28.55c-1.6,4.7-5.33,6.53-10.01,6.77c-4.96,0.25-9.09-1.37-11.97-5.59
		c-0.68-1-0.61-2.21-0.61-3.37C52.44,64.09,52.45,59.99,52.45,55.89z"/>
</g>
</svg>
